<?xml version="1.0" encoding="UTF-8" standalone="no" ?>
<!DOCTYPE svg PUBLIC "-//W3C//DTD SVG 1.1//EN" "http://www.w3.org/Graphics/SVG/1.1/DTD/svg11.dtd">
<svg xmlns="http://www.w3.org/2000/svg" xmlns:xlink="http://www.w3.org/1999/xlink" version="1.1" width="1000" height="1000" viewBox="0 0 1000 1000" xml:space="preserve">
<desc>Created with Fabric.js 5.2.4</desc>
<defs>
</defs>
<g transform="matrix(1 0 0 1 500 500)" id="99b79a02-b528-4e10-8080-8a3260d9963a"  >
<rect style="stroke: none; stroke-width: 1; stroke-dasharray: none; stroke-linecap: butt; stroke-dashoffset: 0; stroke-linejoin: miter; stroke-miterlimit: 4; fill: rgb(255,255,255); fill-rule: nonzero; opacity: 1; visibility: hidden;" vector-effect="non-scaling-stroke"  x="-500" y="-500" rx="0" ry="0" width="1000" height="1000" />
</g>
<g transform="matrix(Infinity NaN NaN Infinity 0 0)" id="d5e5badb-65f5-438a-82e9-3dff39275e9f"  >
</g>
<g transform="matrix(0.93 0 0 0.93 1000 1000)"  >
<g style="" vector-effect="non-scaling-stroke"   >
		<g transform="matrix(1 0 0 1 0 0)"  >
<rect style="stroke: none; stroke-width: 1; stroke-dasharray: none; stroke-linecap: butt; stroke-dashoffset: 0; stroke-linejoin: miter; stroke-miterlimit: 4; fill: rgb(255,255,255); fill-rule: nonzero; opacity: 1; visibility: hidden;" vector-effect="non-scaling-stroke"  x="-540" y="-540" rx="0" ry="0" width="1080" height="1080" />
</g>
		<g transform="matrix(1 0 0 1 0 0)"  >
<path style="stroke: rgb(0,0,0); stroke-width: 0; stroke-dasharray: none; stroke-linecap: butt; stroke-dashoffset: 0; stroke-linejoin: miter; stroke-miterlimit: 4; fill: rgb(255,255,255); fill-rule: nonzero; opacity: 1;" vector-effect="non-scaling-stroke"  transform=" translate(-40.5, -36.04)" d="M 34 39.1716 L 34 22.4583 L 28 28.0833 L 28 22.5833 L 36 15.0833 L 44 22.5833 L 44 28.0833 L 38 22.4583 L 38 38 L 54.625 38 L 49 32 L 54.5 32 L 62 40 L 54.5 48 L 49 48 L 54.625 42 L 36.8284 42 L 25.8284 53 L 34 53 L 30 57 L 19 57 L 19 46 L 23 42 L 23 50.1716 L 34 39.1716 Z M 40.2533 47.5333 L 37.8 52.345 L 37.8 55 L 36.0933 55 L 36.0933 52.375 L 33.7467 47.5333 L 35.6683 47.5333 L 36.8633 50.3183 L 37.0333 50.9283 L 37.055 50.9283 L 37.22 50.34 L 38.4717 47.5333 L 40.2533 47.5333 Z M 48.52 37 L 46.49 37 L 45.1817 34.5683 L 45.0283 34.0683 L 45.0067 34.0683 L 44.8317 34.59 L 43.5183 37 L 41.48 37 L 43.9 33.2667 L 41.6933 29.5333 L 43.7717 29.5333 L 44.855 31.7717 L 45.0817 32.4017 L 45.1033 32.4017 L 45.3383 31.7517 L 46.5317 29.5333 L 48.4133 29.5333 L 46.1783 33.235 L 48.52 37 Z M 32.04 38 L 25.96 38 L 25.96 37.015 L 29.835 31.92 L 26.28 31.92 L 26.28 30.5333 L 32.04 30.5333 L 32.04 31.4883 L 28.2483 36.6133 L 32.04 36.6133 L 32.04 38 Z" stroke-linecap="round" />
</g>
</g>
</g>
<g transform="matrix(7.89 0 0 7.89 500 517.82)" id="9fd79be2-e023-4df6-a2f7-75c6561f2021"  >
<path style="stroke: rgb(0,0,0); stroke-width: 0; stroke-dasharray: none; stroke-linecap: butt; stroke-dashoffset: 0; stroke-linejoin: miter; stroke-miterlimit: 4; fill: rgb(255,255,255); fill-rule: nonzero; opacity: 1;" vector-effect="non-scaling-stroke"  transform=" translate(-40.5, -36.04)" d="M 34 39.1716 L 34 22.4583 L 28 28.0833 L 28 22.5833 L 36 15.0833 L 44 22.5833 L 44 28.0833 L 38 22.4583 L 38 38 L 54.625 38 L 49 32 L 54.5 32 L 62 40 L 54.5 48 L 49 48 L 54.625 42 L 36.8284 42 L 25.8284 53 L 34 53 L 30 57 L 19 57 L 19 46 L 23 42 L 23 50.1716 L 34 39.1716 Z M 40.2533 47.5333 L 37.8 52.345 L 37.8 55 L 36.0933 55 L 36.0933 52.375 L 33.7467 47.5333 L 35.6683 47.5333 L 36.8633 50.3183 L 37.0333 50.9283 L 37.055 50.9283 L 37.22 50.34 L 38.4717 47.5333 L 40.2533 47.5333 Z M 48.52 37 L 46.49 37 L 45.1817 34.5683 L 45.0283 34.0683 L 45.0067 34.0683 L 44.8317 34.59 L 43.5183 37 L 41.48 37 L 43.9 33.2667 L 41.6933 29.5333 L 43.7717 29.5333 L 44.855 31.7717 L 45.0817 32.4017 L 45.1033 32.4017 L 45.3383 31.7517 L 46.5317 29.5333 L 48.4133 29.5333 L 46.1783 33.235 L 48.52 37 Z M 32.04 38 L 25.96 38 L 25.96 37.015 L 29.835 31.92 L 26.28 31.92 L 26.28 30.5333 L 32.04 30.5333 L 32.04 31.4883 L 28.2483 36.6133 L 32.04 36.6133 L 32.04 38 Z" stroke-linecap="round" />
</g>
</svg>